<svg version="1.2" baseProfile="tiny-ps" xmlns="http://www.w3.org/2000/svg" viewBox="0 0 5968 5968" width="5968" height="5968">
	<title>null (1)-svg</title>
	<style>
		tspan { white-space:pre }
		.shp0 { fill: #ffffff } 
	</style>
	<path id="Layer" fill-rule="evenodd" class="shp0" d="M1538.5 901.01L3290.75 901L5043 901L5043 5370.24L5040.99 5368.87C5039.89 5368.12 4762.7 5169.95 4425.03 4928.5L3811.08 4489.5L3811 2133L2192.87 2132.75L574.74 2132.5L1056.62 1516.75L1538.5 901.01ZM2288.78 2622.56C2294.13 2622.82 2498.3 2627.13 2742.5 2632.15C2996.32 2637.36 3186.93 2641.66 3187.5 2642.18C3188.16 2642.79 3188.7 2879.86 3189.09 3347.3C3189.6 3966.32 3189.88 4060.82 3191.37 4128.58C3192.3 4170.97 3192.94 4211.06 3192.78 4217.67L3192.5 4229.68L2299 3723.6L2298.94 3708.55C2298.91 3700.27 2294.26 3452.75 2288.61 3158.5C2282.96 2864.25 2278.5 2623.18 2278.7 2622.79C2278.9 2622.41 2283.44 2622.3 2288.78 2622.56ZM2.5 5967.25C4.7 5967.24 5.72 5967.44 4.76 5967.69C3.81 5967.94 2.01 5967.95 0.76 5967.71C-0.48 5967.47 0.3 5967.26 2.5 5967.25ZM17 5967.37C22.77 5967.37 25.14 5967.53 22.25 5967.74C19.36 5967.94 14.64 5967.94 11.75 5967.74C8.86 5967.53 11.22 5967.37 17 5967.37Z" />
</svg>